<?xml version="1.0" standalone="no"?>
<!DOCTYPE svg PUBLIC "-//W3C//DTD SVG 20010904//EN"
 "http://www.w3.org/TR/2001/REC-SVG-20010904/DTD/svg10.dtd">
<svg version="1.0" xmlns="http://www.w3.org/2000/svg"
 width="576.000000pt" height="576.000000pt" viewBox="0 0 576.000000 576.000000"
 preserveAspectRatio="xMidYMid meet">
<metadata>
Created by potrace 1.14, written by Peter Selinger 2001-2017
</metadata>
<g transform="translate(0.000000,576.000000) scale(0.100000,-0.100000)"
fill="#000000" stroke="none">
<path d="M2210 5754 c-426 -37 -726 -96 -1050 -204 -394 -131 -804 -360 -1074
-597 l-36 -32 0 -2166 c0 -1922 2 -2170 15 -2202 24 -57 62 -101 108 -126 40
-21 57 -22 302 -27 242 -5 263 -7 300 -27 22 -12 107 -89 188 -172 97 -98 165
-158 195 -173 46 -23 51 -23 417 -23 l370 0 50 27 c31 16 105 82 195 173 80
81 163 156 185 168 l40 22 1575 5 1575 5 37 23 c20 13 49 37 63 54 59 70 55
-85 55 2181 0 1549 -3 2090 -12 2118 -15 52 -68 113 -121 138 -41 20 -59 21
-386 21 l-343 0 -74 61 c-485 396 -1125 648 -1864 735 -128 15 -607 27 -710
18z m819 -760 c197 -29 355 -95 432 -183 51 -57 69 -120 69 -241 l0 -96 448
-185 447 -184 3 -1237 2 -1236 -37 -15 c-21 -9 -398 -164 -837 -346 l-800
-331 -838 347 -838 346 2 1235 3 1235 446 185 447 185 4 116 c4 105 7 121 33
170 64 116 226 197 474 236 122 19 409 19 540 -1z"/>
<path d="M2555 4716 c-100 -17 -198 -42 -232 -60 l-26 -13 55 -21 c118 -44
212 -57 413 -56 173 0 200 3 301 28 62 15 120 33 130 41 17 12 16 14 -19 28
-129 55 -450 82 -622 53z"/>
<path d="M2270 4273 l0 -70 58 -26 c114 -50 197 -62 432 -62 190 0 225 3 305
23 50 13 110 33 135 46 l45 23 3 66 c2 39 -1 67 -7 67 -5 0 -55 -11 -111 -25
-143 -34 -353 -49 -508 -36 -105 10 -160 19 -329 58 -22 5 -23 3 -23 -64z"/>
<path d="M1795 4093 c-99 -41 -183 -78 -187 -81 -4 -4 252 -114 569 -244 l577
-237 581 239 c507 209 577 240 555 249 -14 5 -97 39 -185 76 -88 37 -166 69
-172 72 -8 3 -13 -3 -13 -18 0 -68 -85 -166 -190 -219 -285 -144 -854 -144
-1145 -1 -96 48 -158 107 -188 183 l-23 55 -179 -74z"/>
<path d="M3525 3539 l-620 -255 -3 -988 c-2 -939 -1 -988 15 -982 73 27 1220
500 1226 505 4 4 6 450 5 992 l-3 984 -620 -256z"/>
<path d="M1372 2803 l3 -988 613 -253 c338 -140 615 -252 618 -250 2 3 4 447
4 988 l0 983 -602 249 c-332 136 -611 251 -620 254 -17 5 -18 -42 -16 -983z"/>
</g>
</svg>
