<svg viewBox="0 0 48 48" xmlns="http://www.w3.org/2000/svg" id="dsmIcon"><g id="Icon/48/brick-small" stroke-width="1" fill-rule="evenodd"><path d="M23.841 2.33c4.519 0 8.238 1.332 8.238 3.895l-.005.145h.005l-.001 1.701 9.682 4.001v17.236l-.001-.001.001 9.238-17.92 7.405-17.92-7.405V19.337h2.924l-.001 9.486h.001v7.758l13.534 5.592V20.835l-13.535-5.59.001 4.092H5.92v-7.264l9.681-4.002V6.298v-.073c0-2.563 3.72-3.895 8.24-3.895zm14.995 12.915l-13.534 5.59v21.338l13.534-5.592V15.245zm-6.762-4.003v.039c-.157 2.454-3.814 3.73-8.234 3.73s-8.077-1.276-8.234-3.73l-.001-.039-4.384 1.812 12.62 5.213 12.618-5.213-4.385-1.812zm-2.918-1.91c-1.439.521-3.297.787-5.315.787-2.019 0-3.878-.265-5.317-.788l.001 1.599a.096.096 0 01.014.01c.191.162.536.345 1.001.512 1.094.392 2.637.626 4.3.626 1.663 0 3.206-.234 4.3-.626.465-.167.81-.35 1.001-.512l.008-.006.006-.004.001-1.599zm-.001 1.598v.186c0-.138.026-.2 0-.186zm-10.63 0c-.026-.015 0 .048 0 .186v-.186zm5.316-5.666c-1.664 0-3.207.233-4.301.625a4.549 4.549 0 00-.746.336c.191.111.443.227.746.335 1.094.392 2.637.626 4.301.626 1.663 0 3.206-.234 4.3-.626.302-.108.554-.224.745-.335a4.545 4.545 0 00-.746-.336c-1.093-.392-2.636-.625-4.299-.625z" id="Combined-Shape" fill-rule="nonzero"/></g></svg>