<svg viewBox="0 0 39 39" xmlns="http://www.w3.org/2000/svg" id="dsmIcon"><g id="Icon/LED/cat-0" stroke-width="1" fill-rule="evenodd"><g id="cat-0"><path id="Fill-1" fill-opacity=".5" d="M8.21 14.368h6.158V8.211H8.211z"/><path id="Fill-2" fill-opacity=".5" d="M16.421 6.158h6.158V0H16.42z"/><path id="Fill-3" fill="#DDD" d="M16.421 14.368h6.158V8.211H16.42z"/><path id="Fill-4" fill="#DDD" d="M16.421 22.579h6.158V16.42H16.42z"/><path id="Fill-5" fill="#DDD" d="M16.421 30.79h6.158v-6.158H16.42z"/><path id="Fill-6" fill-opacity=".5" d="M16.421 39h6.158v-6.158H16.42z"/><path id="Fill-7" fill="#DDD" d="M0 6.158h6.158V0H0z"/><path id="Fill-8" fill="#DDD" d="M0 14.368h6.158V8.211H0z"/><path id="Fill-9" fill="#DDD" d="M0 22.579h6.158V16.42H0z"/><path id="Fill-10" fill="#DDD" d="M0 30.79h6.158v-6.158H0z"/><path id="Fill-11" fill="#DDD" d="M0 39h6.158v-6.158H0z"/><path id="Fill-12" fill-opacity=".5" d="M8.21 6.158h6.158V0H8.211z"/><path id="Fill-13" fill-opacity=".5" d="M8.21 22.579h6.158V16.42H8.211z"/><path id="Fill-14" fill-opacity=".5" d="M8.21 30.79h6.158v-6.158H8.211z"/><path id="Fill-15" fill-opacity=".5" d="M8.21 39h6.158v-6.158H8.211z"/><path id="Fill-16" fill-opacity=".5" d="M24.632 6.158h6.157V0h-6.157z"/><path id="Fill-17" fill-opacity=".5" d="M24.632 14.368h6.157V8.211h-6.157z"/><path id="Fill-18" fill-opacity=".5" d="M24.632 22.579h6.157V16.42h-6.157z"/><path id="Fill-19" fill-opacity=".5" d="M24.632 30.79h6.157v-6.158h-6.157z"/><path id="Fill-20" fill-opacity=".5" d="M24.632 39h6.157v-6.158h-6.157z"/><path id="Fill-21" fill="#DDD" d="M32.842 6.158H39V0h-6.158z"/><path id="Fill-22" fill="#DDD" d="M32.842 14.368H39V8.211h-6.158z"/><path id="Fill-23" fill="#DDD" d="M32.842 22.579H39V16.42h-6.158z"/><path id="Fill-24" fill="#DDD" d="M32.842 30.79H39v-6.158h-6.158z"/><path id="Fill-25" fill="#DDD" d="M32.842 39H39v-6.158h-6.158z"/></g></g></svg>