<svg viewBox="0 0 39 39" xmlns="http://www.w3.org/2000/svg" id="dsmIcon"><g id="Icon/LED/cat-6" stroke-width="1" fill-rule="evenodd"><g id="Group"><path id="Fill-1" fill="#7D7D7D" d="M8.316 13.76h5.545V8.256H8.316z"/><path id="Fill-2" fill="#7D7D7D" d="M16.632 5.505h5.544V0h-5.544z"/><path id="Fill-3" fill="#DDD" d="M16.632 13.76h5.544V8.256h-5.544z"/><path id="Fill-4" fill="#7D7D7D" d="M16.632 22.017h5.544v-5.505h-5.544z"/><path id="Fill-5" fill="#DDD" d="M16.632 29.815h5.544V24.31h-5.544z"/><path id="Fill-6" fill="#7D7D7D" d="M16.632 38.07h5.544v-5.503h-5.544z"/><path id="Fill-7" fill="#DDD" d="M0 5.505h5.544V0H0z"/><path id="Fill-8" fill="#DDD" d="M0 13.76h5.544V8.257H0z"/><path id="Fill-9" fill="#DDD" d="M0 22.017h5.544v-5.504H0z"/><path id="Fill-10" fill="#DDD" d="M0 29.815h5.544V24.31H0z"/><path id="Fill-11" fill="#DDD" d="M0 38.07h5.544v-5.503H0z"/><path id="Fill-12" fill="#7D7D7D" d="M8.316 5.505h5.545V0H8.316z"/><path id="Fill-13" fill="#7D7D7D" d="M8.316 22.017h5.545v-5.505H8.316z"/><path id="Fill-14" fill="#7D7D7D" d="M8.316 29.815h5.545V24.31H8.316z"/><path id="Fill-15" fill="#7D7D7D" d="M8.316 38.07h5.545v-5.503H8.316z"/><path id="Fill-16" fill="#7D7D7D" d="M24.949 5.505h5.544V0h-5.544z"/><path id="Fill-17" fill="#DDD" d="M24.949 13.76h5.544V8.256h-5.544z"/><path id="Fill-18" fill="#7D7D7D" d="M24.949 22.017h5.544v-5.505h-5.544z"/><path id="Fill-19" fill="#7D7D7D" d="M24.949 29.815h5.544V24.31h-5.544z"/><path id="Fill-20" fill="#7D7D7D" d="M24.949 38.07h5.544v-5.503h-5.544z"/><path id="Fill-21" fill="#DDD" d="M32.803 5.505h5.544V0h-5.544z"/><path id="Fill-22" fill="#DDD" d="M32.803 13.76h5.544V8.257h-5.544z"/><path id="Fill-23" fill="#DDD" d="M32.803 22.017h5.544v-5.504h-5.544z"/><path id="Fill-24" fill="#DDD" d="M32.803 29.815h5.544V24.31h-5.544z"/><path id="Fill-25" fill="#DDD" d="M32.803 38.07h5.544v-5.503h-5.544z"/></g></g></svg>