<svg xmlns="http://www.w3.org/2000/svg" viewBox="0 0 120 45.56" id="icon">
  <path fill="#f6c407" stroke="#b99b00" d="M.5,10.64c15.37-13.52,43.64-13.52,59,0h55A2.46,2.46,0,0,1,117,13.1V37.68a2.46,2.46,0,0,1-2.45,2.46H30a3.22,3.22,0,0,0-2.46,1.23l-2.46,2.46a3.2,3.2,0,0,1-2.45,1.23H15.25a3.22,3.22,0,0,1-2.46-1.23l-2.46-2.46a3.2,3.2,0,0,0-2.45-1.23H3A2.46,2.46,0,0,1,.5,37.68Z"/>
  <g fill="#fff">
    <path class="d" d="M41.67,29.62v-7h1.42v5.79h3.53v1.19Z"/>
    <path class="d" d="M50.58,28l1.35.22a2.26,2.26,0,0,1-.82,1.13,2.41,2.41,0,0,1-1.4.39,2.27,2.27,0,0,1-2-.87,2.91,2.91,0,0,1-.51-1.76,2.83,2.83,0,0,1,.67-2,2.2,2.2,0,0,1,1.67-.71,2.27,2.27,0,0,1,1.8.75,3.31,3.31,0,0,1,.63,2.3H48.62a1.39,1.39,0,0,0,.32.93,1,1,0,0,0,.78.34.79.79,0,0,0,.53-.18A1,1,0,0,0,50.58,28Zm.08-1.37a1.32,1.32,0,0,0-.3-.89,1,1,0,0,0-.71-.3,1,1,0,0,0-.73.32,1.26,1.26,0,0,0-.28.87Z"/>
    <path class="d" d="M53,30l1.54.18a.54.54,0,0,0,.18.37,1,1,0,0,0,.61.15,1.64,1.64,0,0,0,.79-.16.67.67,0,0,0,.27-.34,2.13,2.13,0,0,0,.06-.62v-.75a1.8,1.8,0,0,1-1.53.83,1.89,1.89,0,0,1-1.63-.87A3,3,0,0,1,52.79,27a2.83,2.83,0,0,1,.62-2A2,2,0,0,1,55,24.41a1.85,1.85,0,0,1,1.56.83v-.72h1.26V29.1a4.55,4.55,0,0,1-.15,1.35,1.72,1.72,0,0,1-.42.7,1.91,1.91,0,0,1-.72.4,4,4,0,0,1-1.13.14,3,3,0,0,1-1.84-.44A1.42,1.42,0,0,1,53,30.12Zm1.21-3a1.81,1.81,0,0,0,.31,1.18,1,1,0,0,0,.78.38,1,1,0,0,0,.83-.39A1.65,1.65,0,0,0,56.44,27a1.85,1.85,0,0,0-.32-1.18,1.07,1.07,0,0,0-.83-.38,1,1,0,0,0-.8.38A1.76,1.76,0,0,0,54.18,27Z"/>
    <path class="d" d="M58.79,27a2.76,2.76,0,0,1,.33-1.3,2.29,2.29,0,0,1,.94-1,2.82,2.82,0,0,1,1.36-.33,2.53,2.53,0,0,1,1.89.75,2.56,2.56,0,0,1,.74,1.9A2.62,2.62,0,0,1,63.31,29a2.53,2.53,0,0,1-1.88.77,3,3,0,0,1-1.34-.32,2.18,2.18,0,0,1-1-.93A3.12,3.12,0,0,1,58.79,27Zm1.38.07a1.68,1.68,0,0,0,.36,1.16,1.17,1.17,0,0,0,1.78,0,1.71,1.71,0,0,0,.36-1.17,1.67,1.67,0,0,0-.36-1.15,1.19,1.19,0,0,0-1.78,0A1.7,1.7,0,0,0,60.17,27.07Z"/>
    <path class="d" d="M71.47,29.62H69.92L69.31,28H66.49l-.58,1.6H64.4l2.75-7h1.5Zm-2.62-2.78-1-2.62-.95,2.62Z"/>
    <path class="d" d="M72.17,24.52h1.26v.75a2,2,0,0,1,.66-.62,1.84,1.84,0,0,1,.93-.24,2,2,0,0,1,1.51.69A2.84,2.84,0,0,1,77.15,27a2.9,2.9,0,0,1-.63,2,1.94,1.94,0,0,1-1.51.71,1.7,1.7,0,0,1-.76-.17,2.71,2.71,0,0,1-.73-.58v2.57H72.17ZM73.51,27a1.93,1.93,0,0,0,.34,1.27,1,1,0,0,0,.83.41,1,1,0,0,0,.78-.37,2,2,0,0,0,.31-1.24,1.82,1.82,0,0,0-.32-1.19,1,1,0,0,0-.79-.39,1.07,1.07,0,0,0-.83.38A1.77,1.77,0,0,0,73.51,27Z"/>
    <path class="d" d="M78.18,24.52h1.26v.75a1.79,1.79,0,0,1,.66-.62,1.84,1.84,0,0,1,.93-.24,2,2,0,0,1,1.51.69A2.84,2.84,0,0,1,83.16,27a2.9,2.9,0,0,1-.63,2,2,2,0,0,1-1.51.71,1.77,1.77,0,0,1-.77-.17,2.54,2.54,0,0,1-.72-.58v2.57H78.18ZM79.52,27a1.93,1.93,0,0,0,.34,1.27,1,1,0,0,0,.83.41,1,1,0,0,0,.78-.37,2,2,0,0,0,.31-1.24,1.88,1.88,0,0,0-.32-1.19,1,1,0,0,0-.8-.39,1,1,0,0,0-.82.38A1.71,1.71,0,0,0,79.52,27Z"/>
    <path class="d" d="M85.82,29.62V23.77H83.73V22.58h5.59v1.19H87.24v5.85Z"/>
    <path class="d" d="M89.19,27a2.76,2.76,0,0,1,.33-1.3,2.29,2.29,0,0,1,.94-1,2.82,2.82,0,0,1,1.36-.33,2.53,2.53,0,0,1,1.89.75,2.56,2.56,0,0,1,.74,1.9A2.62,2.62,0,0,1,93.71,29a2.53,2.53,0,0,1-1.88.77,3,3,0,0,1-1.34-.32,2.18,2.18,0,0,1-1-.93A3.12,3.12,0,0,1,89.19,27Zm1.38.07a1.68,1.68,0,0,0,.36,1.16,1.17,1.17,0,0,0,1.78,0,1.71,1.71,0,0,0,.36-1.17,1.67,1.67,0,0,0-.36-1.15,1.19,1.19,0,0,0-1.78,0A1.7,1.7,0,0,0,90.57,27.07Z"/>
    <path class="d" d="M95.2,27a2.76,2.76,0,0,1,.33-1.3,2.23,2.23,0,0,1,.94-1,2.75,2.75,0,0,1,1.35-.33,2.54,2.54,0,0,1,1.9.75,2.81,2.81,0,0,1,0,3.81,2.5,2.5,0,0,1-1.88.77,3,3,0,0,1-1.33-.32,2.13,2.13,0,0,1-1-.93A3.12,3.12,0,0,1,95.2,27Zm1.38.07a1.68,1.68,0,0,0,.36,1.16,1.15,1.15,0,0,0,.89.41,1.12,1.12,0,0,0,.88-.41,1.71,1.71,0,0,0,.36-1.17,1.67,1.67,0,0,0-.36-1.15,1.11,1.11,0,0,0-.88-.4,1.14,1.14,0,0,0-.89.4A1.7,1.7,0,0,0,96.58,27.07Z"/>
    <path class="d" d="M101.52,29.62v-7h1.35v7Z"/>
    <path class="d" d="M103.77,28.17l1.36-.21a1,1,0,0,0,.35.6,1.21,1.21,0,0,0,.74.2,1.28,1.28,0,0,0,.78-.19.43.43,0,0,0,.18-.36.39.39,0,0,0-.09-.26,1.12,1.12,0,0,0-.46-.17,7.19,7.19,0,0,1-2.06-.66A1.31,1.31,0,0,1,104,26a1.4,1.4,0,0,1,.52-1.11,2.46,2.46,0,0,1,1.63-.45,2.81,2.81,0,0,1,1.55.34,1.67,1.67,0,0,1,.7,1l-1.27.23a.79.79,0,0,0-.31-.46,1.18,1.18,0,0,0-.65-.15,1.57,1.57,0,0,0-.76.14.33.33,0,0,0-.16.28.29.29,0,0,0,.14.24,4.84,4.84,0,0,0,1.26.38,3.89,3.89,0,0,1,1.5.6,1.27,1.27,0,0,1,.43,1,1.54,1.54,0,0,1-.59,1.2,2.57,2.57,0,0,1-1.73.51,2.76,2.76,0,0,1-1.65-.43A1.94,1.94,0,0,1,103.77,28.17Z"/>
  </g>
  <line stroke="#d9b208" x1="34.92" y1="13.1" x2="34.92" y2="35.23"/>
  <path fill="#fff" d="M27.94,18.06l-4.89-2v-.86h0v-.07c0-1.29-1.88-2-4.17-2s-4.16.68-4.16,2V16l-4.89,2V31.44l9,3.74,9.06-3.74V26.77h0ZM16.71,14.94a6.67,6.67,0,0,1,2.17-.32,6.78,6.78,0,0,1,2.18.32,2.48,2.48,0,0,1,.37.17,1.61,1.61,0,0,1-.37.17,6.78,6.78,0,0,1-2.18.32,6.67,6.67,0,0,1-2.17-.32,2,2,0,0,1-.38-.17A2.59,2.59,0,0,1,16.71,14.94Zm-.51,1.74a8.13,8.13,0,0,0,2.68.4,8.24,8.24,0,0,0,2.69-.4v.81s0,0,0,.09v-.09h0a1.74,1.74,0,0,1-.5.26,6.78,6.78,0,0,1-2.18.32,6.67,6.67,0,0,1-2.17-.32,1.82,1.82,0,0,1-.51-.26h0v.09c0-.07,0-.1,0-.09Zm1.94,16.59-6.83-2.82V26.53h0V19.67l6.83,2.82ZM12.51,18.56l2.21-.91v0c.08,1.24,1.93,1.88,4.16,1.88S23,18.91,23,17.67v0l2.22.91-6.38,2.63Zm14,11.89-6.84,2.82V22.49l6.84-2.82Z"/>
</svg>