<svg xmlns="http://www.w3.org/2000/svg" viewBox="0 0 70.47 71.56" id="icon">
  <path fill="#f6c407" stroke="#b99b00" d="M.5,10.64c15.37-13.52,43.64-13.52,59,0h8A2.46,2.46,0,0,1,70,13.1V63.68a2.46,2.46,0,0,1-2.45,2.46H30a3.22,3.22,0,0,0-2.46,1.23l-2.46,2.46a3.2,3.2,0,0,1-2.45,1.23H15.25a3.22,3.22,0,0,1-2.46-1.23l-2.46-2.46a3.2,3.2,0,0,0-2.45-1.23H3A2.46,2.46,0,0,1,.5,63.68Z"/>
  <path fill="#fff" d="M54.36,20.63,43.16,16V14h0v-.17c0-3-4.3-4.5-9.53-4.5s-9.53,1.54-9.53,4.5V16L12.9,20.63V51.25l20.73,8.56,20.73-8.56V40.56h0ZM28.65,13.47a15.62,15.62,0,0,1,5-.72,15.55,15.55,0,0,1,5,.72,6.1,6.1,0,0,1,.86.39,5.5,5.5,0,0,1-.86.39,15.55,15.55,0,0,1-5,.72,15.62,15.62,0,0,1-5-.72,5.5,5.5,0,0,1-.86-.39A6.66,6.66,0,0,1,28.65,13.47Zm-1.17,4a18.35,18.35,0,0,0,6.15.92,18.71,18.71,0,0,0,6.15-.91V19.3s0,.06,0,.22V19.3h0a4.33,4.33,0,0,1-1.16.59,15.55,15.55,0,0,1-5,.72,15.62,15.62,0,0,1-5-.72,4.4,4.4,0,0,1-1.15-.59l0,0v.22c0-.16,0-.23,0-.22Zm4.46,38L16.28,49V40h0V24.3l15.66,6.46ZM19,21.76l5.07-2.1v.05c.18,2.84,4.41,4.31,9.53,4.31s9.34-1.47,9.52-4.31v-.05l5.07,2.1-14.59,6ZM51,49,35.32,55.44V30.76L51,24.3Z"/>
</svg>